<?xml version="1.0" encoding="UTF-8" standalone="no"?>
<!-- Created with Inkscape (http://www.inkscape.org/) -->

<svg
   version="1.1"
   id="svg2"
   width="425.33334"
   height="512"
   viewBox="0 0 425.33334 512"
   sodipodi:docname="youtube.eps"
   xmlns:inkscape="http://www.inkscape.org/namespaces/inkscape"
   xmlns:sodipodi="http://sodipodi.sourceforge.net/DTD/sodipodi-0.dtd"
   xmlns="http://www.w3.org/2000/svg"
   xmlns:svg="http://www.w3.org/2000/svg">
  <defs
     id="defs6">
    <clipPath
       clipPathUnits="userSpaceOnUse"
       id="clipPath18">
      <path
         d="M 0,5.30859 H 3190 V 3835.3086 H 0 Z"
         id="path16" />
    </clipPath>
  </defs>
  <sodipodi:namedview
     id="namedview4"
     pagecolor="#ffffff"
     bordercolor="#000000"
     borderopacity="0.25"
     inkscape:showpageshadow="2"
     inkscape:pageopacity="0.0"
     inkscape:pagecheckerboard="0"
     inkscape:deskcolor="#d1d1d1" />
  <g
     id="g8"
     inkscape:groupmode="layer"
     inkscape:label="ink_ext_XXXXXX"
     transform="matrix(1.3333333,0,0,-1.3333333,0,512)">
    <g
       id="g10"
       transform="scale(0.1)">
      <g
         id="g12">
        <g
           id="g14"
           clip-path="url(#clipPath18)">
          <path
             d="m 2696.21,1037.27 h -209.3 l 0.98,122.38 c 0,53.24 43.83,98.98 98.01,98.98 h 13.08 c 56.1,0 100.9,-45.74 100.9,-98.98 z m -787.23,261.52 c -53.24,0 -96.25,-36.49 -96.25,-80.31 V 626.371 c 0,-43.051 43.01,-80.351 96.25,-80.351 53.25,0 97.07,37.3 97.07,80.351 v 592.109 c 0,43.82 -43.82,80.31 -97.07,80.31 z m 1278.48,331.56 V 503.121 C 3187.46,232.34 2953.95,10 2666.25,10 H 521.988 C 234.301,10 0,232.34 0,503.121 V 1630.35 c 0,270.78 234.449,491.21 521.988,491.21 H 2666.25 c 287.7,0 521.21,-220.43 521.21,-491.21 z M 664.961,379.77 V 1567.7 h 266.168 v 176.44 l -708.789,0.94 V 1571.37 H 443.75 V 379.609 H 664.961 Z M 1461.6,1390.31 H 1240.2 V 757.031 c 0,-93.402 5.58,-138.16 0,-155.082 -18.64,-48.59 -98.99,-100.898 -130.71,-5.578 -5.54,18.668 -0.94,67.258 -0.94,155.109 v 638.83 H 887.148 l 0.973,-629.451 c 0,-95.308 -1.91,-168.129 0.938,-199.839 4.652,-57.899 2.89,-125.122 56.14,-164.34 99.921,-70.942 291.321,11.172 338.981,113.941 V 379.922 h 177.42 z m 708.79,-726.521 v 529.491 c 0,199.88 -150.31,321.33 -354.96,158.75 l 0.98,392.27 H 1594.06 V 387.27 l 181.21,3.671 17.7,83.981 c 231.76,-212.774 377.42,-67.113 377.42,188.867 z m 693.99,70.941 -166.26,-1.921 v -115.86 c 0,-48.629 -41.13,-89.719 -91.48,-89.719 h -31.72 c -50.35,0 -90.54,41.09 -90.54,89.719 V 863.52 h 380.15 v 142.81 c 0,102.81 -3.67,209.29 -11.17,268.08 -28.05,189.54 -293.28,218.52 -427.77,122.43 -43.05,-29.97 -74.77,-69.97 -93.4,-125.12 -18.67,-54.18 -28.09,-128.95 -28.09,-224.1 V 732.809 c 0.82,-522.93 634.85,-448.2 560.28,1.921 z m -852.74,1709.14 c 12.11,-28.09 29.96,-50.39 53.24,-67.27 24.22,-16.76 55.16,-26.13 91.49,-26.13 31.72,0 59.76,9.37 84.96,28.05 24.22,17.69 44.76,43.82 62.62,79.37 l -5.59,-87.81 H 2545.9 V 3421.56 H 2351.6 V 2603.4 c 0,-44.77 -36.48,-80.31 -82.22,-80.31 -43.83,0 -81.29,36.48 -81.29,80.31 v 818.16 h -201.8 v -708.83 c 0,-89.72 1.91,-150.31 3.67,-181.21 3.05,-29.8 11.49,-59.76 21.68,-87.65 z m -748.01,593.86 c 0,100.9 8.44,179.3 25.2,236.22 15.94,56.09 46.68,101.83 90.51,136.28 43.86,34.42 98.98,51.33 167.22,51.33 56.88,0 106.45,-12.11 147.58,-32.69 40.16,-23.25 71.88,-51.29 93.4,-86.84 24.22,-35.55 39.22,-71.91 46.72,-109.37 8.44,-37.27 12.11,-95.32 12.11,-170.86 v -267.11 c 0,-97.07 -2.89,-169.14 -12.11,-214.89 -6.56,-45.74 -22.5,-87.81 -47.66,-127.03 -24.22,-39.18 -56.13,-68.2 -95.31,-86.83 -38.28,-20.59 -83.05,-29.03 -134.53,-29.03 -56.1,0 -102.81,8.44 -142.03,24.22 -40.16,16.76 -69.96,40.16 -91.49,72.85 -21.52,31.72 -37.26,71.88 -45.74,116.68 -9.38,46.68 -14.02,115.86 -14.02,208.32 v 278.75 z m 193.32,-417.42 c 0,-59.76 44.81,-107.42 98.05,-107.42 54.18,0 98.01,47.66 98.01,107.42 v 559.46 c 0,58.78 -44.77,107.42 -98.01,107.42 -54.22,0 -98.05,-48.64 -98.05,-107.42 z M 772.379,2337.38 H 1005.9 l 0.98,806.02 274.6,690.15 H 1027.42 L 880.781,3321.76 732.23,3835.31 H 480.078 l 292.301,-692.07 z"
             style="fill:#000000;fill-opacity:1;fill-rule:nonzero;stroke:none"
             id="path20" />
        </g>
      </g>
    </g>
  </g>
</svg>
